<svg xmlns="http://www.w3.org/2000/svg" width="1200" height="630" viewBox="0 0 1200 630"><defs><linearGradient id="bg" x1="0%" x2="100%" y1="0%" y2="100%"><stop offset="0%" style="stop-color:#0a0704"/><stop offset="60%" style="stop-color:#120d06"/><stop offset="100%" style="stop-color:#1c1309"/></linearGradient><filter id="glow" width="120%" height="120%" x="-10%" y="-10%"><feGaussianBlur result="blur" stdDeviation="3"/><feMerge><feMergeNode in="blur"/><feMergeNode in="SourceGraphic"/></feMerge></filter><radialGradient id="spotlight" cx="50%" cy="42%" r="45%"><stop offset="0%" style="stop-color:#2a1a0a;stop-opacity:.7"/><stop offset="100%" style="stop-color:#120d06;stop-opacity:0"/></radialGradient><linearGradient id="frameLine" x1="0%" x2="100%" y1="0%" y2="0%"><stop offset="0%" style="stop-color:#8b4513;stop-opacity:0"/><stop offset="25%" style="stop-color:#c8922a;stop-opacity:.9"/><stop offset="75%" style="stop-color:#c8922a;stop-opacity:.9"/><stop offset="100%" style="stop-color:#8b4513;stop-opacity:0"/></linearGradient></defs><rect width="1200" height="630" fill="url(#bg)"/><rect width="1200" height="630" fill="url(#spotlight)"/><rect width="1136" height="566" x="32" y="32" fill="none" stroke="#c8922a" stroke-opacity=".35" stroke-width="1.5" rx="8" ry="8"/><rect width="1112" height="542" x="44" y="44" fill="none" stroke="#c8922a" stroke-opacity=".2" stroke-width=".5" rx="6" ry="6"/><line x1="80" x2="1120" y1="80" y2="80" stroke="url(#frameLine)" stroke-width="1"/><line x1="80" x2="1120" y1="550" y2="550" stroke="url(#frameLine)" stroke-width="1"/><text x="58" y="74" fill="#c8922a" font-family="serif" font-size="18" opacity=".6">✦</text><text x="1122" y="74" fill="#c8922a" font-family="serif" font-size="18" opacity=".6">✦</text><text x="58" y="560" fill="#c8922a" font-family="serif" font-size="18" opacity=".6">✦</text><text x="1122" y="560" fill="#c8922a" font-family="serif" font-size="18" opacity=".6">✦</text><rect width="1200" height="5" x="0" y="0" fill="none"/><rect width="160" height="3" x="32" y="32" fill="#e8432d" opacity=".7" rx="1.5"/><rect width="160" height="3" x="200" y="32" fill="#4a90d9" opacity=".7" rx="1.5"/><rect width="160" height="3" x="368" y="32" fill="#e8b84b" opacity=".7" rx="1.5"/><rect width="160" height="3" x="536" y="32" fill="#8b5e3c" opacity=".7" rx="1.5"/><rect width="160" height="3" x="704" y="32" fill="#6b9e3c" opacity=".7" rx="1.5"/><rect width="160" height="3" x="872" y="32" fill="#9b6bbf" opacity=".7" rx="1.5"/><rect width="128" height="3" x="1040" y="32" fill="#d4a84b" opacity=".7" rx="1.5"/><text x="600" y="185" fill="#c8922a" font-family="Georgia, 'Times New Roman', serif" font-size="18" font-weight="400" letter-spacing="6" opacity=".85" text-anchor="middle">ROOT BOARD GAME</text><text x="600" y="310" fill="#f5ede0" filter="url(#glow)" font-family="Georgia, 'Palatino Linotype', Palatino, serif" font-size="130" font-weight="700" letter-spacing="-2" text-anchor="middle"><tspan fill="#e5a83a">Root</tspan><tspan fill="#d4bfa0">Pick</tspan></text><line x1="460" x2="545" y1="345" y2="345" stroke="#c8922a" stroke-width="1" opacity=".5"/><text x="600" y="352" fill="#c8922a" font-family="serif" font-size="14" opacity=".7" text-anchor="middle">✦</text><line x1="655" x2="740" y1="345" y2="345" stroke="#c8922a" stroke-width="1" opacity=".5"/><text x="600" y="400" fill="#c8b89a" font-family="Georgia, 'Times New Roman', serif" font-size="26" font-weight="400" letter-spacing="1" opacity=".9" text-anchor="middle">Faction randomizer for Root</text><g transform="translate(600, 460)"><rect width="185" height="34" x="-420" y="-18" fill="#1c1309" stroke="#c8922a" stroke-opacity=".4" stroke-width="1" rx="17"/><text x="-328" y="7" fill="#c8b89a" font-family="Georgia, serif" font-size="16" opacity=".9" text-anchor="middle">⚖ Balanced Reach</text><rect width="175" height="34" x="-210" y="-18" fill="#1c1309" stroke="#c8922a" stroke-opacity=".4" stroke-width="1" rx="17"/><text x="-122" y="7" fill="#c8b89a" font-family="Georgia, serif" font-size="16" opacity=".9" text-anchor="middle">📦 All Expansions</text><rect width="155" height="34" x="-13" y="-18" fill="#1c1309" stroke="#c8922a" stroke-opacity=".4" stroke-width="1" rx="17"/><text x="65" y="7" fill="#c8b89a" font-family="Georgia, serif" font-size="16" opacity=".9" text-anchor="middle">📊 Win Rates</text><rect width="100" height="34" x="162" y="-18" fill="#1c1309" stroke="#c8922a" stroke-opacity=".4" stroke-width="1" rx="17"/><text x="212" y="7" fill="#c8b89a" font-family="Georgia, serif" font-size="16" opacity=".9" text-anchor="middle">★ Free</text><rect width="138" height="34" x="282" y="-18" fill="#1c1309" stroke="#c8922a" stroke-opacity=".4" stroke-width="1" rx="17"/><text x="351" y="7" fill="#c8b89a" font-family="Georgia, serif" font-size="16" opacity=".9" text-anchor="middle">🎴 Hirelings</text></g><text x="600" y="527" fill="#c8922a" font-family="'Courier New', Courier, monospace" font-size="18" letter-spacing="2" opacity=".6" text-anchor="middle">rootpick.app</text></svg>